<svg width="18" height="14" viewBox="0 0 18 14" fill="none" xmlns="http://www.w3.org/2000/svg">
<path d="M12 0C14.8284 0 16.2424 0.000226594 17.1211 0.878906C17.9998 1.75759 18 3.17157 18 6V8C18 10.8284 17.9998 12.2424 17.1211 13.1211C16.2424 13.9998 14.8284 14 12 14H6C3.17157 14 1.75759 13.9998 0.878906 13.1211C0.0002266 12.2424 0 10.8284 0 8V6C0 3.17157 0.000226594 1.75759 0.878906 0.878906C1.75759 0.000226612 3.17157 0 6 0H12ZM15.832 3.44531C15.5257 2.98578 14.9048 2.86162 14.4453 3.16797L9 6.79785L3.55469 3.16797C3.09516 2.86162 2.47432 2.98578 2.16797 3.44531C1.86162 3.90484 1.98578 4.52568 2.44531 4.83203L7.89062 8.46191C8.56242 8.90978 9.43758 8.90978 10.1094 8.46191L15.5547 4.83203C16.0142 4.52568 16.1384 3.90484 15.832 3.44531Z" fill="#222222"/>
</svg>
