<svg width="14" height="17" viewBox="0 0 14 17" fill="none" xmlns="http://www.w3.org/2000/svg">
<path d="M5.81836 0.506531C6.57301 0.183111 7.42699 0.183111 8.18164 0.506531L13.3936 2.73993C13.7612 2.89747 13.9999 3.25895 14 3.65887V8.9118C14 10.8495 13.0641 12.6683 11.4873 13.7946L8.16211 16.1696C7.46687 16.666 6.53313 16.666 5.83789 16.1696L2.5127 13.7946C0.935919 12.6683 0 10.8495 0 8.9118V3.65887C0.000103948 3.25895 0.238842 2.89747 0.606445 2.73993L5.81836 0.506531ZM10.625 5.21844C10.1938 4.8736 9.56375 4.94363 9.21875 5.37469L5.91797 9.50165L4.70703 8.29266C4.31654 7.90232 3.68346 7.90232 3.29297 8.29266C2.90249 8.68314 2.90258 9.31619 3.29297 9.70673L4.89746 11.3122C5.52963 11.9444 6.5714 11.8863 7.12988 11.1882L10.7812 6.62469C11.1261 6.19344 11.0562 5.56341 10.625 5.21844Z" fill="#222222"/>
</svg>
